<?xml version="1.0" encoding="utf-8"?>
<!-- Generator: Adobe Illustrator 25.2.3, SVG Export Plug-In . SVG Version: 6.00 Build 0)  -->
<svg version="1.1" id="Layer_1" xmlns="http://www.w3.org/2000/svg" xmlns:xlink="http://www.w3.org/1999/xlink" x="0px" y="0px"
	 viewBox="0 0 2023.9 798.3" style="enable-background:new 0 0 2023.9 798.3;" xml:space="preserve">
<style type="text/css">
	.st0{fill:#D1D3D4;}
	.st1{fill:#FFFFFF;}
	.st2{opacity:0.16;fill:#747778;}
	.st3{opacity:0.12;fill:#747778;}
	.st4{opacity:0.13;fill:#747778;}
</style>
<g>
	<g>
		<path class="st0" d="M756.3,222.9c0,23.5-19,42.5-42.5,42.5c-23.5,0-42.5-19-42.5-42.5s19-42.5,42.5-42.5
			C737.2,180.4,756.3,199.4,756.3,222.9z"/>
		<path class="st1" d="M179.8,505.3l210.4-179.8c15.5-13.2,35.1-18.9,54.2-17.2l71.5-61.1c-20.4-11.8-42.9-18.8-65.8-20.7
			c-40-3.5-81.1,8.3-113.7,36.1L126,442.3c-17,14.6-18.8,40.5-4,57.9C136.8,517.5,162.7,519.9,179.8,505.3z"/>
		<path class="st2" d="M426.8,280.7c-20.1-1.8-40.7,4.2-57.1,18.2L148.2,488.2c-8,6.8-17.8,10.1-27.6,10.1c0.8,1.1,1.6,2.2,2.5,3.2
			c14.8,17.3,40.7,19.6,57.8,5.1l210.4-179.8c15.5-13.2,35.1-18.9,54.2-17.2l71.5-61.1c-11.1-6.4-22.9-11.4-35-14.9L426.8,280.7z"/>
		<path class="st1" d="M807.5,350.5c16.3-14,18.6-38.1,4.4-54.7c-14.2-16.6-38.4-18.1-54.7-4.2L555.8,463.8
			c-14.9,12.7-33.9,17.8-52.2,16.2c-18.3-1.6-36.3-10.3-49.2-25.4l0,0c-13-15.2-18.7-34.1-17.4-52.4l-0.1-0.4
			c1.3-18.2,9.4-36.1,24.3-48.8l180.1-154c16.3-13.9,18-38.8,3.8-55.4c-14.2-16.6-39-18.8-55.3-4.9l-180.1,154
			c-31,26.5-48.1,63.8-50.8,102.2l0.1,0.2l0,0.1c-2.7,38.4,9.2,78.1,36.2,109.6l0,0c27.1,31.7,64.1,49.3,102.5,52.6
			c38.3,3.3,77.4-8.3,108.6-34.9L807.5,350.5z"/>
		<path class="st3" d="M801.7,339.1l-184.9,158c-28.6,24.5-64.5,35.1-99.7,32c-35.2-3-69.2-19.2-94-48.3
			c-24.7-28.9-35.6-65.3-33.2-100.6l0-0.1l-0.1-0.2c2.5-35.2,18.2-69.5,46.6-93.8l165.3-141.3c11.5-9.8,27.5-10.9,40.2-4
			c-14.5-13.8-37.2-14.9-52.4-1.8L409.6,292.8c-31,26.5-48.1,63.8-50.8,102.2l0.1,0.2l0,0.1c-2.6,38.4,9.2,78.1,36.1,109.6
			c27.1,31.7,64.1,49.2,102.4,52.6c38.3,3.3,77.4-8.2,108.5-34.9l201.4-172.1c16.3-13.9,18.6-38.1,4.4-54.7c-1-1.2-2.1-2.3-3.3-3.4
			C818.4,307.4,815.6,327.2,801.7,339.1z"/>
		<path class="st1" d="M484.9,333.7c11.5,15.1,16.3,33.2,15.1,50.9c-1.4,19.1-10.2,37.4-25.7,50.7L286.1,596.1
			c-17.1,14.6-18.8,40.5-4,57.9c14.8,17.3,40.7,19.7,57.8,5.1L528,498.3c32.5-27.7,50.5-66.4,53.4-106.4l0.1-0.1
			c2.7-38.6-8.7-78.4-34.8-110.8L484.9,333.7z"/>
		<path class="st4" d="M529.2,296.2c16.7,28.3,23.8,60.4,21.6,91.8l-0.1,0.1c-2.9,40.1-20.9,78.7-53.4,106.4L309.3,655.4
			c-4.5,3.9-9.7,6.5-15.1,8c14.6,8.1,33,6.9,46.2-4.3l188.1-160.8c32.5-27.7,50.5-66.4,53.4-106.4l0.1-0.1
			c2.7-38.6-8.7-78.4-34.8-110.8L529.2,296.2z"/>
		<path class="st1" d="M762.7,216.5c0,23.5-19,42.5-42.5,42.5c-23.5,0-42.5-19-42.5-42.5s19-42.5,42.5-42.5
			C743.7,174,762.7,193,762.7,216.5z"/>
		<g>
			<path class="st0" d="M290.2,582L250,617.9c-1.1,0.9-2.7,0.9-3.6-0.2l-75.2-84.1c-0.9-1.1-0.9-2.7,0.2-3.6l40.1-35.9
				c1.1-0.9,2.7-0.9,3.6,0.2l75.2,84.1C291.3,579.5,291.2,581.1,290.2,582z"/>
			<path class="st1" d="M283.7,588.4l-40.1,35.9c-1.1,0.9-2.7,0.9-3.6-0.2l-75.2-84.1c-0.9-1.1-0.9-2.7,0.2-3.6l40.1-35.9
				c1.1-0.9,2.7-0.9,3.6,0.2l75.2,84.1C284.9,585.9,284.8,587.5,283.7,588.4z"/>
		</g>
	</g>
	<g>
		<path class="st1" d="M925.6,600.6c-11.5-6.6-20.4-15.5-26.9-26.9c-6.4-11.3-9.6-23.9-9.6-37.7c0-13.8,3.2-26.4,9.6-37.7
			c6.4-11.3,15.4-20.3,26.9-26.9c11.5-6.6,24.3-9.8,38.5-9.8c10.9,0,21.2,2.2,30.8,6.6c9.6,4.4,17.7,10.5,24.3,18.4
			c6.6,7.9,11.2,16.8,13.6,27h-24.8c-3-8.7-8.5-15.8-16.6-21c-8.1-5.3-17.2-7.9-27.3-7.9c-10.1,0-19.1,2.2-26.9,6.7
			c-7.8,4.4-13.8,10.6-18.1,18.4c-4.3,7.8-6.5,16.6-6.5,26.5c0,9.8,2.2,18.7,6.5,26.5c4.3,7.8,10.4,13.9,18.1,18.4
			c7.8,4.4,16.7,6.7,26.9,6.7c10.1,0,19.2-2.6,27.3-7.9c8.1-5.3,13.6-12.3,16.6-21h24.8c-2.3,10-6.8,18.9-13.5,26.8
			c-6.7,7.9-14.8,14-24.4,18.5c-9.6,4.4-19.8,6.7-30.8,6.7C950,610.5,937.1,607.2,925.6,600.6z"/>
		<path class="st1" d="M1118.5,507.3c5.1,3.1,9.2,7.7,12.1,13.5c2.9,5.9,4.4,12.9,4.4,20.9v66h-22.1V543c0-6.3-1.7-11.1-5.2-14.6
			c-3.5-3.4-8-5.1-13.6-5.1c-6.3,0-11.5,2.1-15.7,6.2c-4.2,4.1-6.3,10.6-6.3,19.5v58.8h-22.1V464.3h22.1V517
			c6.3-9.6,16-14.4,29.1-14.4C1107.6,502.6,1113.3,504.2,1118.5,507.3z"/>
		<path class="st1" d="M1227,513.1c7.7,7,11.5,16.7,11.5,29.1v65.6h-21.7v-9.6c-6.6,8.2-16.3,12.3-29.1,12.3c-9.8,0-18.2-2.8-25-8.5
			c-6.8-5.7-10.3-13.7-10.3-24.1c0-10.4,3.4-18.4,10.3-24c6.8-5.6,15.2-8.4,25-8.4c12.4,0,22.1,3.5,29.1,10.5v-12.7
			c0-6.8-1.7-11.9-5.1-15.1c-3.4-3.2-8.1-4.8-13.9-4.8c-5.6,0-10.2,1.4-13.7,4.2c-3.6,2.8-5.3,6.7-5.3,11.6h-21.7
			c0-7.4,1.8-13.8,5.4-19.4c3.6-5.5,8.5-9.8,14.7-12.7c6.2-2.9,13.1-4.4,20.7-4.4C1209.6,502.6,1219.4,506.1,1227,513.1z
			 M1210.7,588.9c4-2.9,6-6.6,6-11.1c0-4.6-2-8.3-6-11.1c-4-2.7-9.3-4.1-15.9-4.1c-6.7,0-11.8,1.4-15.2,4.1
			c-3.4,2.7-5.1,6.4-5.1,11.1c0,4.6,1.7,8.4,5.1,11.2c3.4,2.8,8.5,4.2,15.2,4.2C1201.4,593.2,1206.7,591.8,1210.7,588.9z"/>
		<path class="st1" d="M1261.7,464.3h22.1v24.6h-22.1V464.3z M1261.7,505.3h22.1v102.5h-22.1V505.3z"/>
		<path class="st1" d="M1378,507.3c5.1,3.1,9.2,7.7,12.1,13.5c2.9,5.9,4.4,12.9,4.4,20.9v66h-22.1V543c0-6.3-1.7-11.1-5.2-14.6
			c-3.5-3.4-8-5.1-13.6-5.1c-6.3,0-11.5,2.1-15.7,6.2c-4.2,4.1-6.3,10.6-6.3,19.5v58.8h-22.1V505.3h22.1V517
			c6.3-9.6,16-14.4,29.1-14.4C1367.1,502.6,1372.9,504.2,1378,507.3z"/>
		<path class="st1" d="M1583.5,536.4c4.6,7.5,6.9,15.9,6.9,25.2c0,8.5-2,16.2-5.9,23.3c-4,7-9.4,12.6-16.3,16.7
			c-6.9,4.1-14.6,6.2-23.1,6.2h-69.5h-5.1V464.3h23.6h35.3c7.8,0,14.8,1.6,21,4.9c6.2,3.3,11,7.8,14.5,13.4
			c3.4,5.7,5.1,12.1,5.1,19.2c0,6.2-1.7,12-5.1,17.6C1572.7,523.3,1578.9,528.9,1583.5,536.4z M1494,486.4v28.1h47.8
			c3-3.3,4.5-7.2,4.5-11.7c0-4.8-1.5-8.7-4.6-11.8c-3.1-3.1-7.2-4.6-12.4-4.6H1494z M1560.2,578.5c4.4-4.8,6.6-10.7,6.6-17.8
			c0-7.2-2.2-13.2-6.5-17.9c-4.3-4.7-10.4-7.1-18.1-7.1H1494v50h48C1549.8,585.7,1555.8,583.3,1560.2,578.5z"/>
		<path class="st1" d="M1678.3,513.1c7.7,7,11.5,16.7,11.5,29.1v65.6h-21.7v-9.6c-6.6,8.2-16.3,12.3-29.1,12.3
			c-9.8,0-18.2-2.8-25-8.5c-6.8-5.7-10.3-13.7-10.3-24.1c0-10.4,3.4-18.4,10.3-24c6.8-5.6,15.2-8.4,25-8.4
			c12.4,0,22.1,3.5,29.1,10.5v-12.7c0-6.8-1.7-11.9-5.1-15.1c-3.4-3.2-8.1-4.8-13.9-4.8c-5.6,0-10.2,1.4-13.7,4.2
			c-3.6,2.8-5.3,6.7-5.3,11.6h-21.7c0-7.4,1.8-13.8,5.4-19.4c3.6-5.5,8.5-9.8,14.7-12.7c6.2-2.9,13.1-4.4,20.7-4.4
			C1660.9,502.6,1670.7,506.1,1678.3,513.1z M1662,588.9c4-2.9,6-6.6,6-11.1c0-4.6-2-8.3-6-11.1c-4-2.7-9.3-4.1-15.9-4.1
			c-6.7,0-11.8,1.4-15.2,4.1c-3.4,2.7-5.1,6.4-5.1,11.1c0,4.6,1.7,8.4,5.1,11.2c3.4,2.8,8.5,4.2,15.2,4.2
			C1652.7,593.2,1658,591.8,1662,588.9z"/>
		<path class="st1" d="M1781.6,507.3c5.1,3.1,9.2,7.7,12.1,13.5c2.9,5.9,4.4,12.9,4.4,20.9v66h-22.1V543c0-6.3-1.7-11.1-5.2-14.6
			c-3.5-3.4-8-5.1-13.6-5.1c-6.3,0-11.5,2.1-15.7,6.2c-4.2,4.1-6.3,10.6-6.3,19.5v58.8H1713V505.3h22.1V517
			c6.3-9.6,16-14.4,29.1-14.4C1770.7,502.6,1776.4,504.2,1781.6,507.3z"/>
		<path class="st1" d="M1884.4,607.8l-41-47.4v47.4h-22.1V464.3h22.1v86.3l39-45.3h26.5l-43.9,50.2l45.9,52.3H1884.4z"/>
		<g>
			<path class="st1" d="M1023.1,245.4c14.8,9.1,26.4,21.6,34.9,37.5c8.5,15.9,12.7,33.5,12.7,52.6c0,19.2-4.2,36.7-12.7,52.6
				c-8.5,15.9-20.1,28.4-34.9,37.5c-14.8,9.1-31.3,13.6-49.6,13.6h-72.9h-13V231.7h39.8h46.1C991.8,231.7,1008.3,236.3,1023.1,245.4
				z M1004.2,392c8.9-5.4,15.9-13,20.9-22.8c5-9.8,7.5-21,7.5-33.7c0-12.7-2.5-23.9-7.5-33.7c-5-9.8-12-17.4-20.9-22.8
				c-8.9-5.4-19.2-8.2-30.7-8.2h-46.1v129.3h46.1C985.1,400.2,995.3,397.5,1004.2,392z"/>
			<path class="st1" d="M1138.7,231.7v207.6h-39.8V231.7H1138.7z"/>
			<path class="st1" d="M1273.6,327.8h95.7V364v75.3h-37.5v-26.1c-6.9,9.7-15.9,17.2-26.9,22.4c-11.1,5.2-23.6,7.9-37.6,7.9
				c-18.8,0-35.9-4.8-51.2-14.4c-15.3-9.6-27.3-22.6-36-39c-8.7-16.4-13.1-34.6-13.1-54.6c0-20.2,4.5-38.5,13.5-54.9
				c9-16.4,21.5-29.4,37.3-38.9c15.9-9.5,33.8-14.2,53.8-14.2c15.6,0,30.3,3.3,44.1,9.8s25.5,15.4,34.9,26.5
				c9.4,11.2,15.7,23.7,18.7,37.5h-41.5c-3.8-9.7-11-17.8-21.3-24.3c-10.4-6.5-22-9.8-34.9-9.8c-12.9,0-24.3,2.9-34.2,8.6
				c-9.9,5.7-17.5,13.8-22.9,24.2c-5.4,10.4-8.1,22.2-8.1,35.4c0,13.8,2.8,26.1,8.4,36.8c5.6,10.7,13.3,18.9,23.2,24.8
				c9.9,5.8,21.1,8.7,33.6,8.7c15,0,27.7-3.7,38.2-11c10.5-7.3,17.1-17.6,19.7-30.8h-55.9V327.8z"/>
			<path class="st1" d="M1442.2,231.7v207.6h-39.8V231.7H1442.2z"/>
			<path class="st1" d="M1601.5,270.9h-48.7v168.5h-39.8V270.9h-48.4v-39.2h88.2h48.7V270.9z"/>
			<path class="st1" d="M1722.9,402h-77.2l-11.5,37.4h-42.9l68.6-207.6h49.3l68.6,207.6h-43.2L1722.9,402z M1711.1,363.7l-26.8-86.6
				l-26.8,86.6H1711.1z"/>
			<path class="st1" d="M1912,400.2v39.1h-114.7V231.7h39.8v168.5H1912z"/>
		</g>
	</g>
</g>
</svg>
