<?xml version="1.0" encoding="utf-8"?>
<!-- Generator: Adobe Illustrator 25.2.3, SVG Export Plug-In . SVG Version: 6.00 Build 0)  -->
<svg version="1.1" id="Layer_1" xmlns="http://www.w3.org/2000/svg" xmlns:xlink="http://www.w3.org/1999/xlink" x="0px" y="0px"
	 viewBox="0 0 2023.9 798.3" style="enable-background:new 0 0 2023.9 798.3;" xml:space="preserve">
<style type="text/css">
	.st0{fill:url(#SVGID_1_);}
	.st1{fill:#F26623;}
	.st2{fill:url(#SVGID_2_);}
	.st3{fill:url(#SVGID_3_);}
	.st4{fill:url(#SVGID_4_);}
	.st5{fill:#0B0B0B;}
</style>
<g>
	
		<linearGradient id="SVGID_1_" gradientUnits="userSpaceOnUse" x1="210.975" y1="-77.8909" x2="779.236" y2="-77.8909" gradientTransform="matrix(0.7602 -0.6497 0.6497 0.7602 -5.0542 729.5628)">
		<stop  offset="0" style="stop-color:#77CBC4"/>
		<stop  offset="0.3636" style="stop-color:#63BACD"/>
		<stop  offset="1" style="stop-color:#37A3DC"/>
	</linearGradient>
	<path class="st0" d="M166.7,529.2l257.8-220.3c19-16.2,43-23.2,66.4-21.1l87.6-74.8c-25-14.4-52.6-23-80.6-25.4
		c-49-4.2-99.4,10.2-139.3,44.2L100.8,452.1c-20.9,17.8-23,49.7-4.9,70.9C114.1,544.2,145.8,547.1,166.7,529.2z"/>
	<g>
		<g>
			<path class="st1" d="M936,339.6c20-17.1,22.8-46.7,5.4-67c-17.4-20.4-47.1-22.2-67.1-5.1L627.5,478.4
				c-18.2,15.6-41.6,21.8-64,19.8c-22.5-1.9-44.4-12.6-60.3-31.1l0,0c-15.9-18.6-22.9-41.8-21.4-64.2l-0.1-0.5
				c1.6-22.3,11.5-44.2,29.8-59.8L732.3,154c20-17.1,22-47.6,4.7-67.9c-17.4-20.3-47.8-23-67.8-6L448.4,268.8
				c-38,32.5-58.9,78.2-62.3,125.3l0.1,0.3l0.1,0.2c-3.2,47.1,11.3,95.7,44.3,134.3l0,0c33.2,38.8,78.6,60.4,125.5,64.4
				c46.9,4.1,94.9-10.1,133.1-42.8L936,339.6z"/>
			<path class="st1" d="M928.9,325.5L702.3,519.1c-35.1,30-79,43-122.1,39.2c-43.1-3.7-84.8-23.5-115.2-59.1
				c-30.3-35.5-43.6-80.1-40.7-123.3l0-0.2l-0.1-0.3c3.1-43.2,22.2-85.2,57.1-115L684,87.4c14-12,33.7-13.3,49.3-4.9
				c-17.7-16.9-45.6-18.2-64.2-2.2L448.3,268.8c-38,32.5-58.9,78.2-62.2,125.2l0.1,0.3l0.1,0.2c-3.2,47.1,11.3,95.6,44.3,134.3
				c33.2,38.8,78.6,60.3,125.5,64.4c46.9,4.1,94.8-10.1,133-42.7l246.8-210.9c20-17.1,22.8-46.7,5.4-67c-1.3-1.5-2.6-2.9-4-4.1
				C949.3,286.8,945.9,311,928.9,325.5z"/>
		</g>
	</g>
	
		<linearGradient id="SVGID_2_" gradientUnits="userSpaceOnUse" x1="237.7524" y1="136.2103" x2="781.2028" y2="136.2103" gradientTransform="matrix(0.7602 -0.6497 0.6497 0.7602 -5.0542 729.5628)">
		<stop  offset="0" style="stop-color:#77CBC4"/>
		<stop  offset="0.3636" style="stop-color:#63BACD"/>
		<stop  offset="1" style="stop-color:#37A3DC"/>
	</linearGradient>
	<path class="st2" d="M540.6,318.9c14.1,18.5,20,40.7,18.5,62.4c-1.7,23.4-12.5,45.8-31.5,62.1l-230.5,197
		c-20.9,17.9-23,49.7-4.9,70.9c18.2,21.2,49.9,24.1,70.8,6.2l230.5-197c39.8-34,61.9-81.3,65.4-130.4l0.1-0.2
		c3.3-47.4-10.7-96.1-42.7-135.8L540.6,318.9z"/>
	<linearGradient id="SVGID_3_" gradientUnits="userSpaceOnUse" x1="828.9594" y1="126.0075" x2="828.9594" y2="225.0998">
		<stop  offset="0" style="stop-color:#77CBC4"/>
		<stop  offset="0.3636" style="stop-color:#63BACD"/>
		<stop  offset="1" style="stop-color:#37A3DC"/>
	</linearGradient>
	<path class="st3" d="M881,175.3c0,28.8-23.3,52.1-52.1,52.1c-28.8,0-52.1-23.3-52.1-52.1s23.3-52.1,52.1-52.1
		C857.7,123.3,881,146.6,881,175.3z"/>
	<linearGradient id="SVGID_4_" gradientUnits="userSpaceOnUse" x1="297.8765" y1="665.7566" x2="211.9493" y2="567.7459">
		<stop  offset="0" style="stop-color:#F7941D"/>
		<stop  offset="0.9997" style="stop-color:#F26623"/>
	</linearGradient>
	<path class="st4" d="M299.6,621.5l-44.3,39.6c-2.6,2.4-6.7,2.1-9.1-0.5l-87.8-98.2c-2.4-2.6-2.1-6.7,0.5-9.1l44.3-39.6
		c2.6-2.4,6.7-2.1,9.1,0.5l87.8,98.2C302.4,615.1,302.2,619.1,299.6,621.5z"/>
	<g>
		<path class="st5" d="M1058.7,585.6c-10.3-5.9-18.3-13.9-24-24c-5.7-10.1-8.6-21.4-8.6-33.7c0-12.3,2.9-23.6,8.6-33.7
			c5.7-10.1,13.7-18.1,24-24c10.3-5.9,21.7-8.8,34.5-8.8c9.8,0,18.9,2,27.5,5.9c8.6,3.9,15.8,9.4,21.7,16.4c5.9,7,10,15.1,12.2,24.1
			h-22.2c-2.7-7.8-7.6-14.1-14.8-18.8c-7.2-4.7-15.3-7.1-24.4-7.1c-9,0-17,2-24,6c-7,4-12.4,9.4-16.2,16.4c-3.9,7-5.8,14.8-5.8,23.6
			c0,8.8,1.9,16.7,5.8,23.6c3.8,7,9.3,12.4,16.2,16.4c7,4,15,6,24,6c9,0,17.2-2.4,24.4-7.1c7.2-4.7,12.2-11,14.8-18.8h22.2
			c-2.1,8.9-6.1,16.9-12.1,23.9c-6,7-13.3,12.5-21.8,16.5c-8.6,4-17.7,6-27.5,6C1080.4,594.4,1069,591.5,1058.7,585.6z"/>
		<path class="st5" d="M1231.1,502.2c4.6,2.8,8.2,6.8,10.8,12.1c2.6,5.3,3.9,11.5,3.9,18.7v59H1226v-57.9c0-5.6-1.6-10-4.7-13
			c-3.1-3.1-7.2-4.6-12.2-4.6c-5.6,0-10.3,1.8-14,5.5c-3.7,3.7-5.6,9.5-5.6,17.4V592h-19.8V463.7h19.8v47.1
			c5.6-8.6,14.3-12.8,26-12.8C1221.3,498,1226.5,499.4,1231.1,502.2z"/>
		<path class="st5" d="M1328.1,507.4c6.8,6.2,10.3,14.9,10.3,26V592h-19.4v-8.6c-5.9,7.3-14.5,11-26,11c-8.8,0-16.2-2.5-22.4-7.6
			c-6.1-5.1-9.2-12.2-9.2-21.5c0-9.3,3.1-16.4,9.2-21.4c6.1-5,13.6-7.5,22.4-7.5c11.1,0,19.8,3.1,26,9.3v-11.4
			c0-6.1-1.5-10.6-4.6-13.5c-3.1-2.9-7.2-4.3-12.5-4.3c-5,0-9.1,1.3-12.3,3.8c-3.2,2.5-4.8,6-4.8,10.4h-19.4
			c0-6.6,1.6-12.4,4.9-17.3c3.2-4.9,7.6-8.7,13.1-11.4c5.5-2.6,11.7-3.9,18.5-3.9C1312.5,498,1321.2,501.1,1328.1,507.4z
			 M1313.5,575.2c3.6-2.6,5.4-5.9,5.4-9.9c0-4.2-1.8-7.5-5.4-9.9c-3.6-2.4-8.3-3.7-14.2-3.7c-6,0-10.5,1.2-13.6,3.7
			c-3.1,2.4-4.6,5.7-4.6,9.9c0,4.2,1.5,7.5,4.6,10c3,2.5,7.6,3.8,13.6,3.8C1305.2,579,1309.9,577.7,1313.5,575.2z"/>
		<path class="st5" d="M1359.1,463.7h19.8v22h-19.8V463.7z M1359.1,500.4h19.8V592h-19.8V500.4z"/>
		<path class="st5" d="M1463.1,502.2c4.6,2.8,8.2,6.8,10.8,12.1c2.6,5.3,3.9,11.5,3.9,18.7v59H1458v-57.9c0-5.6-1.6-10-4.7-13
			c-3.1-3.1-7.2-4.6-12.2-4.6c-5.6,0-10.3,1.8-14,5.5c-3.7,3.7-5.6,9.5-5.6,17.4V592h-19.8v-91.6h19.8v10.4
			c5.6-8.6,14.3-12.8,26-12.8C1453.3,498,1458.5,499.4,1463.1,502.2z"/>
		<path class="st5" d="M1646.7,528.2c4.1,6.7,6.1,14.2,6.1,22.5c0,7.6-1.8,14.5-5.3,20.8c-3.5,6.3-8.4,11.3-14.6,14.9
			c-6.2,3.7-13,5.5-20.6,5.5h-62.1h-4.6V463.7h21.1h31.5c7,0,13.2,1.5,18.8,4.4c5.6,2.9,9.9,6.9,12.9,12c3.1,5.1,4.6,10.8,4.6,17.1
			c0,5.5-1.5,10.8-4.6,15.8C1637,516.5,1642.6,521.5,1646.7,528.2z M1566.7,483.5v25.1h42.7c2.7-2.9,4-6.4,4-10.4
			c0-4.3-1.4-7.8-4.1-10.5c-2.8-2.7-6.4-4.1-11.1-4.1H1566.7z M1625.9,565.8c3.9-4.3,5.9-9.6,5.9-15.9c0-6.5-1.9-11.8-5.8-16
			c-3.8-4.2-9.3-6.3-16.2-6.3h-43.1v44.7h42.9C1616.5,572.2,1622,570.1,1625.9,565.8z"/>
		<path class="st5" d="M1731.5,507.4c6.8,6.2,10.3,14.9,10.3,26V592h-19.4v-8.6c-5.9,7.3-14.5,11-26,11c-8.8,0-16.2-2.5-22.4-7.6
			c-6.1-5.1-9.2-12.2-9.2-21.5c0-9.3,3.1-16.4,9.2-21.4c6.1-5,13.6-7.5,22.4-7.5c11.1,0,19.8,3.1,26,9.3v-11.4
			c0-6.1-1.5-10.6-4.6-13.5c-3.1-2.9-7.2-4.3-12.5-4.3c-5,0-9.1,1.3-12.3,3.8c-3.2,2.5-4.8,6-4.8,10.4h-19.4
			c0-6.6,1.6-12.4,4.9-17.3c3.2-4.9,7.6-8.7,13.1-11.4c5.5-2.6,11.7-3.9,18.5-3.9C1715.9,498,1724.6,501.1,1731.5,507.4z
			 M1716.9,575.2c3.6-2.6,5.4-5.9,5.4-9.9c0-4.2-1.8-7.5-5.4-9.9c-3.6-2.4-8.3-3.7-14.2-3.7c-6,0-10.5,1.2-13.6,3.7
			c-3.1,2.4-4.6,5.7-4.6,9.9c0,4.2,1.5,7.5,4.6,10c3,2.5,7.6,3.8,13.6,3.8C1708.5,579,1713.3,577.7,1716.9,575.2z"/>
		<path class="st5" d="M1823.7,502.2c4.6,2.8,8.2,6.8,10.8,12.1c2.6,5.3,3.9,11.5,3.9,18.7v59h-19.8v-57.9c0-5.6-1.6-10-4.7-13
			c-3.1-3.1-7.2-4.6-12.2-4.6c-5.6,0-10.3,1.8-14,5.5c-3.7,3.7-5.6,9.5-5.6,17.4V592h-19.8v-91.6h19.8v10.4
			c5.6-8.6,14.3-12.8,26-12.8C1814,498,1819.1,499.4,1823.7,502.2z"/>
		<path class="st5" d="M1915.6,592l-36.7-42.3V592h-19.8V463.7h19.8v77.2l34.8-40.5h23.6l-39.2,44.9l41.1,46.7H1915.6z"/>
		<g>
			<path class="st1" d="M1145.8,268.1c13.2,8.1,23.6,19.3,31.2,33.5c7.6,14.2,11.3,29.9,11.3,47.1c0,17.1-3.8,32.8-11.3,47.1
				c-7.6,14.2-17.9,25.4-31.2,33.5c-13.2,8.1-28,12.2-44.3,12.2h-65.2h-11.6V255.9h35.6h41.2C1117.8,255.9,1132.6,260,1145.8,268.1z
				 M1128.9,399.2c8-4.9,14.2-11.7,18.7-20.4c4.5-8.7,6.7-18.8,6.7-30.1c0-11.3-2.2-21.3-6.7-30.1c-4.5-8.7-10.7-15.5-18.7-20.4
				c-8-4.9-17.1-7.3-27.4-7.3h-41.2v115.6h41.2C1111.8,406.5,1121,404,1128.9,399.2z"/>
			<path class="st1" d="M1249.1,255.9v185.6h-35.6V255.9H1249.1z"/>
			<path class="st1" d="M1369.7,341.8h85.5v32.3v67.3h-33.5v-23.3c-6.2,8.7-14.2,15.3-24.1,20c-9.9,4.7-21.1,7-33.6,7
				c-16.8,0-32.1-4.3-45.7-12.9c-13.7-8.6-24.4-20.2-32.2-34.9c-7.8-14.7-11.7-30.9-11.7-48.8c0-18,4-34.4,12.1-49
				c8.1-14.7,19.2-26.2,33.4-34.7c14.2-8.5,30.2-12.7,48-12.7c13.9,0,27,2.9,39.4,8.7c12.4,5.8,22.8,13.7,31.2,23.7
				c8.4,10,14,21.2,16.7,33.5h-37.1c-3.4-8.7-9.8-15.9-19.1-21.7c-9.3-5.8-19.7-8.7-31.2-8.7c-11.5,0-21.7,2.6-30.5,7.7
				c-8.8,5.1-15.7,12.3-20.5,21.6c-4.8,9.3-7.2,19.8-7.2,31.7c0,12.4,2.5,23.3,7.5,32.9c5,9.5,11.9,16.9,20.7,22.1
				c8.8,5.2,18.8,7.8,30,7.8c13.4,0,24.8-3.3,34.1-9.8c9.4-6.5,15.2-15.7,17.6-27.6h-50V341.8z"/>
			<path class="st1" d="M1520.4,255.9v185.6h-35.6V255.9H1520.4z"/>
			<path class="st1" d="M1662.8,290.9h-43.5v150.6h-35.5V290.9h-43.3v-35h78.8h43.5V290.9z"/>
			<path class="st1" d="M1771.3,408.1h-69l-10.3,33.4h-38.4l61.3-185.6h44.1l61.3,185.6h-38.6L1771.3,408.1z M1760.7,373.9l-24-77.4
				l-24,77.4H1760.7z"/>
			<path class="st1" d="M1940.3,406.5v35h-102.5V255.9h35.6v150.6H1940.3z"/>
		</g>
	</g>
</g>
</svg>
